<svg xmlns="http://www.w3.org/2000/svg" viewBox="0 0 180 180" width="180" height="180">
  <defs>
    <radialGradient id="bg" cx="32%" cy="28%" r="85%">
      <stop offset="0%" stop-color="#A8C7E4"/>
      <stop offset="55%" stop-color="#5A86AE"/>
      <stop offset="100%" stop-color="#2E5478"/>
    </radialGradient>
    <clipPath id="clip"><circle cx="90" cy="90" r="78"/></clipPath>
  </defs>
  <circle cx="90" cy="90" r="78" fill="url(#bg)"/>
  <g clip-path="url(#clip)">
    <ellipse cx="135" cy="68" rx="22" ry="6" fill="white" opacity="0.3"/>
    <ellipse cx="35" cy="85" rx="18" ry="5" fill="white" opacity="0.28"/>
    <rect x="10" y="138" width="160" height="40" fill="#1F3852" opacity="0.4"/>
    <line x1="20" y1="148" x2="40" y2="148" stroke="white" stroke-width="2" stroke-linecap="round" opacity="0.5"/>
    <line x1="55" y1="148" x2="75" y2="148" stroke="white" stroke-width="2" stroke-linecap="round" opacity="0.5"/>
    <line x1="90" y1="148" x2="110" y2="148" stroke="white" stroke-width="2" stroke-linecap="round" opacity="0.5"/>
    <line x1="125" y1="148" x2="145" y2="148" stroke="white" stroke-width="2" stroke-linecap="round" opacity="0.5"/>
  </g>
  <g transform="translate(95,52) rotate(-22)">
    <ellipse cx="0" cy="0" rx="34" ry="6.5" fill="#F5F8FB"/>
    <path d="M22 -5 Q32 -2 32 0 Q32 2 22 5 Z" fill="#DEE7F0"/>
    <path d="M-4 -3 L-22 -22 L-10 -22 L8 -3 Z" fill="#F5F8FB"/>
    <path d="M-4 3 L-22 22 L-10 22 L8 3 Z" fill="#C2D0DE"/>
    <path d="M-24 -3 L-34 -16 L-26 -16 L-18 -3 Z" fill="#F5F8FB"/>
    <path d="M-24 3 L-34 16 L-26 16 L-18 3 Z" fill="#C2D0DE"/>
    <circle cx="-8" cy="0" r="1.6" fill="#5A86AE"/>
    <circle cx="0" cy="0" r="1.6" fill="#5A86AE"/>
    <circle cx="8" cy="0" r="1.6" fill="#5A86AE"/>
    <path d="M18 -3 Q24 -3 26 -1 L26 1 Q24 3 18 3 Z" fill="#5A86AE"/>
    <rect x="-22" y="-1" width="40" height="1.5" fill="#C28658"/>
  </g>
  <g transform="translate(90,122)">
    <ellipse cx="0" cy="22" rx="44" ry="3" fill="black" opacity="0.22"/>
    <path d="M-42 6 Q-44 -3 -35 -5 L-24 -7 Q-20 -17 -8 -19 L12 -19 Q24 -17 30 -7 L39 -5 Q46 -3 44 6 L42 14 Q40 18 34 18 L-34 18 Q-40 18 -42 14 Z" fill="#F5F5F0"/>
    <path d="M-24 -7 Q-20 -17 -8 -19 L12 -19 Q24 -17 30 -7 Z" fill="#E8E8E0"/>
    <path d="M-18 -7 Q-14 -15 -5 -16 L0 -16 L3 -7 Z" fill="#8BAACE"/>
    <path d="M7 -7 L3 -16 L10 -16 Q20 -15 25 -7 Z" fill="#8BAACE"/>
    <rect x="-8" y="2" width="6" height="1.5" rx="0.5" fill="#A8A89C"/>
    <rect x="4" y="2" width="6" height="1.5" rx="0.5" fill="#A8A89C"/>
    <ellipse cx="39" cy="2" rx="3" ry="2" fill="#EDD89A"/>
    <ellipse cx="-39" cy="2" rx="2.5" ry="2" fill="#C26060"/>
    <circle cx="-24" cy="18" r="8" fill="#2a2a2a"/>
    <circle cx="-24" cy="18" r="4.5" fill="#7A7A7A"/>
    <circle cx="-24" cy="18" r="2" fill="#2a2a2a"/>
    <circle cx="24" cy="18" r="8" fill="#2a2a2a"/>
    <circle cx="24" cy="18" r="4.5" fill="#7A7A7A"/>
    <circle cx="24" cy="18" r="2" fill="#2a2a2a"/>
  </g>
</svg>
