<svg xmlns="http://www.w3.org/2000/svg" viewBox="0 0 180 180" width="180" height="180">
  <defs>
    <radialGradient id="bg" cx="32%" cy="28%" r="85%">
      <stop offset="0%" stop-color="#EAD08A"/>
      <stop offset="55%" stop-color="#C99A3A"/>
      <stop offset="100%" stop-color="#7E5A12"/>
    </radialGradient>
    <clipPath id="clip"><circle cx="90" cy="90" r="78"/></clipPath>
  </defs>
  <circle cx="90" cy="90" r="78" fill="url(#bg)"/>
  <g clip-path="url(#clip)">
    <rect x="10" y="138" width="160" height="40" fill="#5A3E10" opacity="0.32"/>
    <line x1="20" y1="148" x2="40" y2="148" stroke="white" stroke-width="2" stroke-linecap="round" opacity="0.55"/>
    <line x1="55" y1="148" x2="75" y2="148" stroke="white" stroke-width="2" stroke-linecap="round" opacity="0.55"/>
    <line x1="90" y1="148" x2="110" y2="148" stroke="white" stroke-width="2" stroke-linecap="round" opacity="0.55"/>
    <line x1="125" y1="148" x2="145" y2="148" stroke="white" stroke-width="2" stroke-linecap="round" opacity="0.55"/>
  </g>
  <g transform="translate(90,58)">
    <rect x="-20" y="-2" width="40" height="14" rx="3" fill="#2a2a2a"/>
    <text x="0" y="9" text-anchor="middle" font-size="11" font-weight="800" fill="#E8C26A" font-family="Arial,sans-serif" letter-spacing="1.5">TAXI</text>
  </g>
  <g transform="translate(90,118)">
    <ellipse cx="0" cy="24" rx="48" ry="3.5" fill="black" opacity="0.25"/>
    <path d="M-46 8 Q-48 -2 -38 -4 L-26 -6 Q-22 -18 -10 -20 L14 -20 Q26 -18 32 -6 L42 -4 Q48 -2 46 8 L44 16 Q42 20 36 20 L-36 20 Q-42 20 -44 16 Z" fill="#E8B848"/>
    <path d="M-26 -6 Q-22 -18 -10 -20 L14 -20 Q26 -18 32 -6 Z" fill="#EFC868"/>
    <path d="M-20 -6 Q-16 -16 -6 -17 L0 -17 L4 -6 Z" fill="#3a3a3a"/>
    <path d="M8 -6 L4 -17 L12 -17 Q22 -16 26 -6 Z" fill="#3a3a3a"/>
    <rect x="-46" y="4" width="92" height="7" fill="#F5F0E5"/>
    <rect x="-46" y="4" width="11.5" height="7" fill="#2a2a2a"/>
    <rect x="-23" y="4" width="11.5" height="7" fill="#2a2a2a"/>
    <rect x="0" y="4" width="11.5" height="7" fill="#2a2a2a"/>
    <rect x="23" y="4" width="11.5" height="7" fill="#2a2a2a"/>
    <ellipse cx="44" cy="-1" rx="3" ry="2.2" fill="#F5F0E5"/>
    <ellipse cx="-44" cy="-1" rx="3" ry="2.2" fill="#C26060"/>
    <circle cx="-26" cy="20" r="8.5" fill="#2a2a2a"/>
    <circle cx="-26" cy="20" r="5" fill="#7A7A7A"/>
    <circle cx="-26" cy="20" r="2.2" fill="#2a2a2a"/>
    <circle cx="26" cy="20" r="8.5" fill="#2a2a2a"/>
    <circle cx="26" cy="20" r="5" fill="#7A7A7A"/>
    <circle cx="26" cy="20" r="2.2" fill="#2a2a2a"/>
  </g>
</svg>
