<svg xmlns="http://www.w3.org/2000/svg" viewBox="0 0 180 180" width="180" height="180">
  <defs>
    <radialGradient id="bg" cx="32%" cy="28%" r="85%">
      <stop offset="0%" stop-color="#B0CFBE"/>
      <stop offset="55%" stop-color="#5C8A75"/>
      <stop offset="100%" stop-color="#2A5240"/>
    </radialGradient>
    <clipPath id="clip"><circle cx="90" cy="90" r="78"/></clipPath>
  </defs>
  <circle cx="90" cy="90" r="78" fill="url(#bg)"/>
  <g clip-path="url(#clip)">
    <rect x="10" y="145" width="160" height="40" fill="#1F3D2E" opacity="0.42"/>
    <line x1="20" y1="155" x2="40" y2="155" stroke="white" stroke-width="2" stroke-linecap="round" opacity="0.55"/>
    <line x1="56" y1="155" x2="76" y2="155" stroke="white" stroke-width="2" stroke-linecap="round" opacity="0.55"/>
    <line x1="92" y1="155" x2="112" y2="155" stroke="white" stroke-width="2" stroke-linecap="round" opacity="0.55"/>
    <line x1="128" y1="155" x2="148" y2="155" stroke="white" stroke-width="2" stroke-linecap="round" opacity="0.55"/>
  </g>
  <g transform="translate(90,114)">
    <ellipse cx="0" cy="28" rx="56" ry="3.5" fill="black" opacity="0.25"/>
    <path d="M-52 22 L-52 -28 Q-52 -32 -48 -32 L48 -32 Q56 -32 56 -24 L56 22 Q56 26 52 26 L-48 26 Q-52 26 -52 22 Z" fill="#EFEAE0"/>
    <path d="M-52 -10 L-58 -10 Q-62 -10 -62 -6 L-62 6 Q-62 10 -58 10 L-52 10 Z" fill="#EFEAE0"/>
    <path d="M-52 -28 Q-52 -32 -48 -32 L48 -32 Q56 -32 56 -24 L56 -22 L-52 -22 Z" fill="#5C8A75"/>
    <path d="M-50 -20 Q-50 -22 -48 -22 L-38 -22 L-38 -6 L-50 -6 Z" fill="#A8C7B8"/>
    <rect x="-34" y="-20" width="11" height="13" rx="1.5" fill="#A8C7B8"/>
    <rect x="-21" y="-20" width="11" height="13" rx="1.5" fill="#A8C7B8"/>
    <rect x="-8" y="-20" width="11" height="13" rx="1.5" fill="#A8C7B8"/>
    <rect x="5" y="-20" width="11" height="13" rx="1.5" fill="#A8C7B8"/>
    <rect x="18" y="-20" width="11" height="13" rx="1.5" fill="#A8C7B8"/>
    <rect x="31" y="-20" width="11" height="13" rx="1.5" fill="#A8C7B8"/>
    <rect x="44" y="-20" width="10" height="13" rx="1.5" fill="#A8C7B8"/>
    <line x1="-12" y1="-5" x2="-12" y2="22" stroke="#C9C0B0" stroke-width="0.8"/>
    <line x1="16" y1="-5" x2="16" y2="22" stroke="#C9C0B0" stroke-width="0.8"/>
    <rect x="-2" y="6" width="3" height="6" rx="0.5" fill="#5C8A75"/>
    <line x1="-52" y1="-5" x2="56" y2="-5" stroke="#D8CFC2" stroke-width="0.5"/>
    <rect x="-52" y="10" width="108" height="3" fill="#5C8A75"/>
    <line x1="-58" y1="-2" x2="-52" y2="-2" stroke="#C9C0B0" stroke-width="0.8"/>
    <rect x="-60" y="-2" width="5" height="4" rx="1.5" fill="#EDD89A"/>
    <rect x="-60" y="3" width="6" height="5" rx="0.5" fill="#5C8A75"/>
    <line x1="-58" y1="4.5" x2="-55" y2="4.5" stroke="#A8C7B8" stroke-width="0.5"/>
    <line x1="-58" y1="6.5" x2="-55" y2="6.5" stroke="#A8C7B8" stroke-width="0.5"/>
    <rect x="-54" y="-14" width="3" height="5" rx="0.5" fill="#EFEAE0"/>
    <circle cx="-38" cy="22" r="9" fill="#1F3D2E"/>
    <circle cx="-38" cy="22" r="5.5" fill="#7A7A7A"/>
    <circle cx="-38" cy="22" r="2.2" fill="#1F3D2E"/>
    <circle cx="40" cy="22" r="9" fill="#1F3D2E"/>
    <circle cx="40" cy="22" r="5.5" fill="#7A7A7A"/>
    <circle cx="40" cy="22" r="2.2" fill="#1F3D2E"/>
  </g>
</svg>
