<svg xmlns="http://www.w3.org/2000/svg" viewBox="0 0 64 64" width="64" height="64" aria-label="Fare calc">
  <rect width="64" height="64" rx="14" fill="#000"/>
  <rect x="14" y="8" width="36" height="48" rx="4" stroke="#072A66" stroke-width="2.2" stroke-linecap="round" stroke-linejoin="round" fill="none"/>
      <rect x="18" y="14" width="28" height="8" rx="1" fill="#072A66"/>
      <rect x="18" y="26" width="6" height="6" rx="1" fill="#072A66"/>
      <rect x="26" y="26" width="6" height="6" rx="1" fill="#072A66"/>
      <rect x="34" y="26" width="6" height="6" rx="1" fill="#072A66"/>
      <rect x="42" y="26" width="6" height="6" rx="1" fill="#072A66"/>
      <rect x="18" y="34" width="6" height="6" rx="1" fill="#072A66"/>
      <rect x="26" y="34" width="6" height="6" rx="1" fill="#072A66"/>
      <rect x="34" y="34" width="6" height="6" rx="1" fill="#072A66"/>
      <rect x="42" y="34" width="14" height="14" rx="1" fill="#072A66" x="42" y="34"/>
      <rect x="18" y="42" width="6" height="6" rx="1" fill="#072A66"/>
      <rect x="26" y="42" width="6" height="6" rx="1" fill="#072A66"/>
      <rect x="34" y="42" width="6" height="6" rx="1" fill="#072A66"/>
</svg>