<svg xmlns="http://www.w3.org/2000/svg" viewBox="0 0 64 64" width="64" height="64" aria-label="Google Pay">
  <rect width="64" height="64" rx="14" fill="'#FFFFFF'"/>
  <rect x="4" y="4" width="56" height="56" rx="14" fill="#FFFFFF" stroke="#072A66" stroke-width="0.5"/>
      <path d="M40 32 C40 26.5 35.5 22 30 22 C24.5 22 20 26.5 20 32 C20 37.5 24.5 42 30 42 C34.5 42 38 39.5 39.5 36 L30 36 L30 32 L44 32 C44.5 33 44.5 34 44.5 35 C44.5 41.5 39.5 46 30 46 C22.5 46 16 39.5 16 32 C16 24.5 22.5 18 30 18 C33.5 18 36.5 19.5 38.5 21.5 L36 24 C34.5 22.5 32.5 22 30 22" fill="#4285F4"/>
      <path d="M30 22 C32.5 22 34.5 22.5 36 24 L38.5 21.5 C36.5 19.5 33.5 18 30 18 Z" fill="#EA4335"/>
      <path d="M48 26 L48 38 M50 26 L50 38 M52 26 L52 38" stroke="#072A66" stroke-width="0.8" opacity="0"/>
</svg>