<svg xmlns="http://www.w3.org/2000/svg" viewBox="0 0 400 268" role="img" aria-label="Global Air Travels">
  <title>Global Air Travels</title>
  <rect width="400" height="268" fill="#000000"/>
  <path d="M173.00,260.36C131.61,257.66 93.26,248.43 63.50,233.99C48.43,226.69 47.13,225.76 48.91,223.61C50.95,221.15 52.88,221.59 63.52,226.96C84.16,237.38 109.47,245.82 132.50,249.97C196.52,261.51 261.61,255.15 314.90,232.15C345.64,218.89 369.12,198.76 379.57,176.70C395.71,142.65 381.23,107.41 340.02,80.42C334.78,76.99 329.26,73.62 327.75,72.93C324.35,71.38 324.30,70.50 327.52,68.40C329.96,66.80 330.27,66.88 338.27,71.49C360.57,84.34 377.71,101.15 386.59,118.91C407.06,159.83 383.52,203.81 325.82,232.47C284.64,252.92 225.24,263.76 173.00,260.36Z M326.00,204.65C323.52,204.02 320.67,203.01 319.65,202.40C317.91,201.37 317.89,201.11 319.39,198.22C321.56,194.01 321.96,193.88 327.52,195.55C332.58,197.08 336.38,196.67 335.73,194.67C335.52,194.02 332.87,192.60 329.84,191.50C321.00,188.29 319.82,187.15 319.25,181.28C318.82,176.78 319.07,175.84 321.26,173.64C324.93,169.98 331.29,168.52 337.49,169.92C345.17,171.65 345.63,172.14 343.61,176.41C342.09,179.62 341.61,179.93 339.20,179.28C337.71,178.88 334.93,178.54 333.00,178.53C327.25,178.48 328.69,181.06 335.73,183.41C344.01,186.19 346.33,188.61 346.33,194.45C346.33,199.94 343.79,203.15 338.10,204.85C333.56,206.21 331.97,206.18 326.00,204.65Z M12.00,204.73C12.00,204.59 14.06,198.63 16.59,191.48C19.11,184.34 21.59,177.15 22.09,175.50C23.69,170.28 24.30,169.86 30.01,170.19L35.32,170.50 L37.49,176.55C41.50,187.70 47.00,203.83 47.00,204.42C47.00,204.74 44.74,205.00 41.98,205.00C37.54,205.00 36.84,204.71 36.00,202.50C35.15,200.26 34.49,200.00 29.63,200.00C24.69,200.00 24.16,200.22 23.59,202.50C23.02,204.79 22.49,205.00 17.48,205.00C14.47,205.00 12.00,204.88 12.00,204.73Z M51.00,187.50L51.00,170.00 L56.00,170.00L61.00,170.00 L61.00,187.50L61.00,205.00 L56.00,205.00L51.00,205.00 L51.00,187.50Z M67.63,203.47C67.28,202.57 67.00,194.67 67.00,185.92L67.00,170.00 L77.25,170.08C82.89,170.12 89.08,170.71 91.00,171.39C97.95,173.83 99.98,183.93 94.57,189.13L92.20,191.41 L94.60,196.83C97.99,204.50 97.85,205.00 92.24,205.00L87.49,205.00 L85.16,199.00C83.23,194.01 82.44,193.00 80.47,193.00C78.29,193.00 78.08,193.45 77.80,198.75L77.50,204.50 L72.88,204.80C69.34,205.03 68.11,204.72 67.63,203.47Z M125.67,204.33C125.30,203.97 125.00,198.14 125.00,191.39L125.00,179.10 L119.75,178.80L114.50,178.50 L114.50,174.50L114.50,170.50 L130.25,170.22L146.00,169.95 L146.00,174.42L146.00,178.90 L140.75,179.20L135.50,179.50 L135.22,192.25L134.94,205.00 L130.64,205.00C128.27,205.00 126.03,204.70 125.67,204.33Z M150.70,204.30C150.44,203.86 150.34,199.45 150.49,194.50C150.63,189.55 150.81,182.01 150.88,177.75L151.00,170.00 L161.03,170.00C173.14,170.00 177.27,171.41 179.62,176.33C181.61,180.50 180.82,186.31 177.94,188.78C175.44,190.92 175.49,191.79 178.50,198.60C179.88,201.71 181.00,204.42 181.00,204.62C181.00,204.83 178.63,205.00 175.74,205.00L170.49,205.00 L168.43,199.25C166.70,194.43 165.94,193.45 163.73,193.19C161.19,192.89 161.09,193.06 160.80,198.69L160.50,204.50 L155.84,204.80C153.28,204.97 150.96,204.74 150.70,204.30Z M184.00,204.08C184.00,203.28 186.27,196.74 193.91,175.50L195.71,170.50 L201.24,170.20L206.76,169.91 L209.37,177.20C217.34,199.54 219.00,204.27 219.00,204.62C219.00,204.83 216.57,205.00 213.61,205.00C208.69,205.00 208.16,204.78 207.59,202.50C207.02,200.22 206.49,200.00 201.50,200.00C196.51,200.00 195.98,200.22 195.41,202.50C194.84,204.78 194.31,205.00 189.39,205.00C186.43,205.00 184.00,204.58 184.00,204.08Z M228.29,201.79C227.70,199.98 225.15,192.58 222.61,185.36C220.07,178.13 218.00,171.69 218.00,171.05C218.00,170.29 219.76,170.00 223.22,170.20L228.44,170.50 L231.61,181.50C235.14,193.76 234.84,193.84 238.95,179.63L241.59,170.50 L246.80,170.20C250.57,169.98 252.00,170.25 251.98,171.20C251.97,171.91 249.38,179.70 246.23,188.50L240.50,204.50 L234.93,204.79C229.42,205.09 229.35,205.05 228.29,201.79Z M256.00,187.50L256.00,170.00 L269.56,170.00L283.11,170.00 L282.81,174.25L282.50,178.50 L274.50,179.00C268.28,179.39 266.50,179.83 266.50,181.00C266.50,182.10 267.84,182.57 271.50,182.76C280.19,183.22 281.00,183.62 281.00,187.48L281.00,190.91 L273.75,191.21C267.26,191.47 266.50,191.71 266.50,193.50C266.50,195.31 267.26,195.53 274.75,195.79L283.00,196.08 L283.00,200.54L283.00,205.00 L269.50,205.00L256.00,205.00 L256.00,187.50Z M289.00,187.50L289.00,170.00 L294.00,170.00L299.00,170.00 L299.00,183.00L299.00,196.00 L306.38,196.00L313.75,196.00 L314.35,198.99C315.50,204.76 314.99,205.00 301.39,205.00L289.00,205.00 L289.00,187.50Z M32.00,190.61C32.00,189.85 31.40,187.81 30.67,186.07L29.34,182.91 L28.17,186.82C26.62,192.00 26.62,192.00 29.50,192.00C30.96,192.00 32.00,191.43 32.00,190.61Z M203.92,190.75C203.88,190.06 203.28,187.94 202.60,186.04L201.35,182.57 L200.17,185.93C198.45,190.88 198.69,192.00 201.50,192.00C202.88,192.00 203.97,191.44 203.92,190.75Z M85.40,184.69C86.50,183.89 87.06,182.45 86.84,180.94C86.55,178.85 85.89,178.46 82.25,178.19C78.01,177.89 78.00,177.89 78.00,181.36C78.00,185.85 81.60,187.47 85.40,184.69Z M169.14,184.06C172.51,181.29 170.69,178.60 165.15,178.19L161.00,177.89 L161.00,181.94C161.00,185.75 161.18,186.00 163.89,186.00C165.48,186.00 167.84,185.13 169.14,184.06Z M31.50,156.03C21.29,153.83 14.51,148.78 10.33,140.24C7.97,135.42 7.52,133.24 7.52,126.50C7.51,113.19 12.89,104.45 24.50,98.88C29.51,96.48 31.77,96.00 38.21,96.00C46.32,96.00 54.20,98.24 58.93,101.91C61.64,103.99 61.44,104.55 55.63,111.50L53.12,114.50 L49.81,112.63C47.99,111.60 43.80,110.56 40.50,110.32C33.00,109.76 28.78,112.07 25.96,118.27C22.51,125.87 24.34,135.98 29.86,139.89C33.15,142.21 39.54,143.29 43.50,142.19C46.26,141.42 46.50,141.00 46.50,136.93L46.50,132.50 L41.25,132.20L36.00,131.90 L36.00,126.95L36.00,122.00 L49.00,122.00L62.00,122.00 L62.00,135.95L62.00,149.90 L55.75,152.87C48.83,156.16 38.44,157.52 31.50,156.03Z M140.50,155.66C132.97,153.15 128.10,150.01 124.55,145.36C120.06,139.48 118.51,134.33 118.59,125.50C118.69,113.40 124.28,104.52 135.22,99.05C140.52,96.40 142.38,96.00 149.41,96.01C168.41,96.03 180.32,108.05 180.22,127.11C180.17,135.75 177.67,141.97 171.89,147.84C164.53,155.29 150.14,158.88 140.50,155.66Z M72.69,155.35C71.84,154.51 71.77,100.78 72.61,98.58C73.09,97.32 74.83,97.00 81.11,97.00L89.00,97.00 L89.00,118.97L89.00,140.94 L102.25,141.22L115.50,141.50 L115.50,148.50L115.50,155.50 L94.44,155.77C82.85,155.92 73.06,155.73 72.69,155.35Z M189.80,154.83C189.54,154.10 189.47,147.20 189.65,139.50C189.82,131.80 189.97,118.97 189.98,111.00L190.00,96.50 L207.75,97.00C224.35,97.47 225.78,97.66 229.85,99.99C235.19,103.05 237.00,106.35 237.00,113.05C237.00,117.62 236.60,118.60 233.43,121.77C230.42,124.78 230.10,125.48 231.44,126.22C236.76,129.20 238.35,131.67 238.76,137.60C239.29,145.11 236.71,149.39 229.50,153.00C224.85,155.32 223.29,155.52 207.39,155.83C193.82,156.09 190.18,155.89 189.80,154.83Z M243.00,155.07C243.00,154.55 243.50,152.86 244.11,151.32C244.72,149.77 248.59,138.82 252.71,127.00C256.83,115.17 260.87,103.59 261.69,101.25L263.19,97.00 L272.46,97.00L281.73,97.00 L283.79,102.75C284.93,105.91 288.42,115.92 291.55,125.00C294.68,134.07 298.31,144.37 299.62,147.87C300.93,151.37 302.00,154.65 302.00,155.16C302.00,155.67 298.12,155.95 293.25,155.79L284.50,155.50 L283.02,151.22L281.54,146.93 L272.52,147.22L263.50,147.50 L262.16,151.75L260.81,156.00 L251.91,156.00C247.01,156.00 243.00,155.58 243.00,155.07Z M309.00,126.50L309.00,97.00 L317.50,97.00L326.00,97.00 L326.00,118.97L326.00,140.94 L338.75,141.22L351.50,141.50 L351.79,148.75L352.09,156.00 L330.54,156.00L309.00,156.00 L309.00,126.50Z M155.58,141.10C160.85,138.71 163.51,133.59 163.44,126.00C163.34,115.96 157.90,110.01 148.82,110.00C144.91,110.00 143.58,110.53 140.67,113.27C136.56,117.15 134.56,123.40 135.54,129.36C137.35,140.51 145.88,145.51 155.58,141.10Z M221.25,140.27C223.37,138.36 223.44,136.16 221.45,133.53C220.28,131.99 218.45,131.48 212.98,131.17L206.00,130.77 L206.00,136.22C206.00,139.22 206.34,142.01 206.75,142.43C207.98,143.67 219.36,141.98 221.25,140.27Z M276.69,133.37C277.21,132.01 273.10,117.57 272.39,118.28C272.13,118.53 270.87,122.15 269.59,126.32L267.25,133.89 L269.37,134.29C273.06,134.99 276.22,134.59 276.69,133.37Z M218.54,118.56C220.95,116.14 221.00,114.19 218.72,111.25C218.14,110.50 215.40,110.00 211.88,110.00L206.00,110.00 L206.00,114.83C206.00,117.49 206.30,119.97 206.67,120.33C207.03,120.70 209.30,121.00 211.71,121.00C215.02,121.00 216.69,120.40 218.54,118.56Z M303.50,73.00C303.10,71.74 303.64,69.91 304.95,68.07L307.03,65.15 L304.96,64.49C303.82,64.13 297.85,61.48 291.70,58.61C285.54,55.73 278.65,52.58 276.40,51.60L272.29,49.83 L259.37,58.26C242.19,69.47 242.81,69.18 239.10,67.88C237.39,67.29 236.00,66.56 236.00,66.27C236.00,65.97 239.48,61.40 243.74,56.11C248.00,50.83 251.35,45.95 251.20,45.27C251.05,44.60 251.68,42.90 252.60,41.49C253.52,40.09 254.10,38.78 253.89,38.59C253.67,38.39 250.35,36.34 246.50,34.02C234.32,26.69 232.98,25.63 228.44,19.65C225.59,15.89 224.00,12.78 224.00,10.95C224.00,8.47 224.47,8.00 227.55,7.42C234.95,6.04 242.56,8.63 263.20,19.60L282.91,30.07 L292.70,26.48C298.09,24.51 304.07,22.28 306.00,21.52C307.93,20.75 312.11,19.20 315.31,18.06L321.12,15.98 L325.56,19.04C328.00,20.72 330.00,22.30 330.00,22.54C330.00,22.79 322.80,26.59 314.00,31.00C305.20,35.41 298.00,39.35 298.00,39.76C298.00,40.17 301.34,42.24 305.42,44.36L312.83,48.22 L320.85,42.11C325.27,38.75 329.30,36.00 329.82,36.00C331.89,36.00 332.92,38.54 331.70,40.65C327.64,47.69 325.93,51.26 326.39,51.72C326.68,52.01 328.81,51.49 331.12,50.57C334.51,49.21 335.47,49.14 336.14,50.20C337.55,52.42 337.18,52.88 330.91,56.75C324.81,60.51 315.70,66.87 308.81,72.16C304.41,75.54 304.31,75.56 303.50,73.00Z" fill="#0A76C1"/>
</svg>